<svg width="51" height="25" viewBox="0 0 51 25" fill="none" xmlns="http://www.w3.org/2000/svg">
<path d="M0.624 17.04L0.24 12.24H0.624C0.64 12.304 0.664 12.408 0.696 12.552C0.744 12.696 0.936 13.208 1.272 14.088C1.624 14.968 2.272 15.792 3.216 16.56C4.16 17.328 5.2 17.712 6.336 17.712C6.432 17.712 6.544 17.704 6.672 17.688C6.8 17.672 7.104 17.64 7.584 17.592C8.064 17.528 8.584 17.248 9.144 16.752C9.72 16.24 10.048 15.744 10.128 15.264C10.224 14.768 10.272 14.4 10.272 14.16C10.272 13.344 9.904 12.608 9.168 11.952C8.448 11.296 7.168 10.56 5.328 9.744L4.656 9.456L4.344 9.336L4.176 9.24L3.696 9.024C3.024 8.672 2.48 8.312 2.064 7.944C1.664 7.56 1.336 7.128 1.08 6.648C0.84 6.168 0.72 5.576 0.72 4.872C0.72 4.552 0.768 4.08 0.864 3.456C0.976 2.832 1.488 2.176 2.4 1.488C3.328 0.783999 4.456 0.431999 5.784 0.431999C6.456 0.431999 7.104 0.519999 7.728 0.696L8.496 0.887999C8.896 0.983999 9.344 1.056 9.84 1.104H10.296H10.416L11.16 5.328H10.728L10.464 4.536C10.016 3.368 9.48 2.504 8.856 1.944C8.248 1.384 7.672 1.072 7.128 1.008C6.6 0.944 6.272 0.912 6.144 0.912C6.032 0.895999 5.944 0.887999 5.88 0.887999C5.048 0.887999 4.36 1.088 3.816 1.488C3.272 1.872 2.944 2.312 2.832 2.808C2.736 3.288 2.688 3.592 2.688 3.72C2.688 4.392 3.016 5 3.672 5.544C4.344 6.088 5.608 6.752 7.464 7.536C9.32 8.32 10.648 9.104 11.448 9.888C12.248 10.672 12.648 11.608 12.648 12.696C12.648 13.032 12.568 13.648 12.408 14.544C12.264 15.44 11.64 16.288 10.536 17.088C9.448 17.888 8.032 18.288 6.288 18.288C5.504 18.288 4.664 18.192 3.768 18C2.872 17.824 1.936 17.552 0.96 17.184L0.624 17.04ZM2.976 1.56L2.568 1.872C1.624 2.704 1.152 3.68 1.152 4.8C1.152 6.08 1.504 6.976 2.208 7.488C2.928 8 3.424 8.328 3.696 8.472C3.968 8.616 4.32 8.784 4.752 8.976L5.976 9.504L6.36 9.672C7.768 10.296 8.768 10.864 9.36 11.376C9.952 11.888 10.328 12.408 10.488 12.936C10.648 13.448 10.728 13.904 10.728 14.304C10.728 14.976 10.584 15.528 10.296 15.96C10.024 16.376 9.744 16.704 9.456 16.944L9.936 16.584C10.336 16.232 10.656 15.88 10.896 15.528C11.136 15.16 11.312 14.768 11.424 14.352L11.52 13.872C11.52 13.76 11.528 13.64 11.544 13.512C11.56 13.368 11.568 13.264 11.568 13.2C11.568 12.208 11.224 11.36 10.536 10.656C9.848 9.936 8.64 9.216 6.912 8.496L5.616 7.968L5.376 7.848L4.152 7.272C3.56 6.92 3.096 6.568 2.76 6.216C2.424 5.864 2.192 5.496 2.064 5.112C1.936 4.728 1.872 4.36 1.872 4.008C1.872 3.384 2.128 2.704 2.64 1.968L2.976 1.56ZM0.864 14.736L1.032 16.44L1.32 16.608L1.608 16.752L1.92 16.896L2.304 17.064L2.76 17.232L3.144 17.376L2.784 17.064C2.384 16.696 2.064 16.368 1.824 16.08C1.584 15.792 1.336 15.464 1.08 15.096L0.864 14.736ZM18.5346 18H12.9666V17.664C13.9586 17.664 14.4546 16.968 14.4546 15.576V10.248C14.4546 8.856 13.9586 8.16 12.9666 8.16V7.872L17.0466 7.416V15.576C17.0466 16.968 17.5426 17.664 18.5346 17.664V18ZM14.3106 4.728C14.1826 4.472 14.1186 4.216 14.1186 3.96C14.1186 3.784 14.1506 3.592 14.2146 3.384C14.2786 3.176 14.4466 2.968 14.7186 2.76C14.9906 2.552 15.2866 2.448 15.6066 2.448C15.8786 2.448 16.0946 2.496 16.2546 2.592C16.4146 2.672 16.5986 2.816 16.8066 3.024C17.0146 3.232 17.1186 3.544 17.1186 3.96C17.1186 4.536 16.9346 4.936 16.5666 5.16C16.1986 5.368 15.8786 5.472 15.6066 5.472C15.0466 5.472 14.6146 5.224 14.3106 4.728ZM13.9746 8.184C14.1026 8.248 14.2306 8.32 14.3586 8.4C14.5026 8.48 14.6146 8.584 14.6946 8.712C14.7906 8.84 14.8466 8.968 14.8626 9.096C14.8786 9.224 14.8866 9.376 14.8866 9.552V16.2C14.8866 16.392 14.8546 16.584 14.7906 16.776C14.7266 16.968 14.6386 17.112 14.5266 17.208C14.4306 17.304 14.3346 17.384 14.2386 17.448H16.7586L16.4226 17.208C16.1826 16.968 16.0626 16.632 16.0626 16.2V7.944L13.9746 8.184ZM15.8226 3.096C15.7106 2.76 15.5026 2.664 15.1986 2.808C15.0546 2.888 14.9186 3 14.7906 3.144C14.5826 3.448 14.4786 3.72 14.4786 3.96C14.4786 4.072 14.5506 4.312 14.6946 4.68C14.8386 5.032 15.1266 5.184 15.5586 5.136C15.7506 5.104 15.8466 5 15.8466 4.824L15.8226 3.096ZM19.8345 19.128L20.2185 18.84C19.6905 18.472 19.4265 17.968 19.4265 17.328C19.4265 16.992 19.4825 16.704 19.5945 16.464C19.7225 16.208 19.9545 15.912 20.2905 15.576L20.6025 15.264L21.1545 14.76L21.3465 14.568L20.8905 14.28C19.8185 13.512 19.2825 12.544 19.2825 11.376C19.2825 11.072 19.3225 10.672 19.4025 10.176C19.4985 9.664 19.8665 9.12 20.5065 8.544C21.1625 7.968 22.0345 7.592 23.1225 7.416L23.8905 7.344L24.0105 6.84C24.4105 5.592 25.1465 4.968 26.2185 4.968C26.8425 4.968 27.3625 5.128 27.7785 5.448C28.1945 5.768 28.4025 6.128 28.4025 6.528C28.4025 6.816 28.3145 7.056 28.1385 7.248C27.9785 7.424 27.7705 7.512 27.5145 7.512C27.0825 7.512 26.7465 7.304 26.5065 6.888L26.3145 6.528C26.0905 6.112 25.8025 5.904 25.4505 5.904C25.1945 5.904 24.9705 6.008 24.7785 6.216C24.5865 6.408 24.4585 6.592 24.3945 6.768C24.3305 6.944 24.2985 7.136 24.2985 7.344L25.0425 7.416C25.8265 7.56 26.4985 7.808 27.0585 8.16C27.6345 8.512 28.0745 8.96 28.3785 9.504C28.6985 10.048 28.8585 10.632 28.8585 11.256C28.8585 12.376 28.3945 13.344 27.4665 14.16C26.5545 14.976 25.4665 15.384 24.2025 15.384C23.5305 15.384 22.8425 15.24 22.1385 14.952L21.7065 14.784C21.4505 14.928 21.2505 15.136 21.1065 15.408C20.9785 15.68 20.9145 15.904 20.9145 16.08C20.9145 16.48 21.1785 16.704 21.7065 16.752L22.9305 16.8H25.3065C28.3945 16.8 29.9385 17.896 29.9385 20.088C29.9385 20.296 29.9385 20.504 29.9385 20.712C29.8905 20.904 29.8105 21.304 29.6985 21.912C29.6025 22.52 29.0185 23.184 27.9465 23.904C26.8745 24.64 25.4905 25.008 23.7945 25.008C22.2745 25.008 21.0585 24.744 20.1465 24.216C19.2505 23.688 18.7465 23.16 18.6345 22.632C18.5225 22.12 18.4665 21.76 18.4665 21.552C18.4665 20.736 18.9225 19.928 19.8345 19.128ZM21.8265 11.352C21.8265 12.008 21.9065 12.6 22.0665 13.128C22.2425 13.64 22.4905 14.064 22.8105 14.4C23.1465 14.72 23.5625 14.88 24.0585 14.88C24.7465 14.88 25.2665 14.6 25.6185 14.04C25.9705 13.48 26.1865 12.832 26.2665 12.096L26.3145 11.4C26.3145 10.248 26.1225 9.352 25.7385 8.712C25.3705 8.072 24.8265 7.752 24.1065 7.752C23.5945 7.752 23.1705 7.92 22.8345 8.256C22.4985 8.592 22.2425 9.016 22.0665 9.528C21.9065 10.024 21.8265 10.632 21.8265 11.352ZM20.7465 19.176L20.4105 19.488C19.8825 20.064 19.6185 20.704 19.6185 21.408C19.6185 21.92 19.7625 22.392 20.0505 22.824C20.3385 23.272 20.8105 23.656 21.4665 23.976C22.1385 24.296 22.9705 24.456 23.9625 24.456C25.0345 24.456 25.9625 24.24 26.7465 23.808C27.5465 23.392 28.0665 22.92 28.3065 22.392C28.5465 21.864 28.6665 21.44 28.6665 21.12C28.6665 20.688 28.5305 20.32 28.2585 20.016C28.0025 19.712 27.7225 19.536 27.4185 19.488C27.1305 19.44 26.8905 19.4 26.6985 19.368C26.5225 19.336 26.3625 19.32 26.2185 19.32H22.0425L21.3225 19.272C21.2425 19.272 21.1465 19.264 21.0345 19.248C20.9385 19.232 20.8425 19.208 20.7465 19.176ZM20.4345 15.936C20.1465 16.176 19.9705 16.448 19.9065 16.752C19.8425 17.056 19.8105 17.296 19.8105 17.472C19.8105 17.968 20.0105 18.32 20.4105 18.528C20.8105 18.752 21.4825 18.864 22.4265 18.864L23.1465 18.888H24.8265L25.7865 18.912C27.0025 18.912 27.8425 19.056 28.3065 19.344C28.7865 19.648 29.0265 20.152 29.0265 20.856C29.0265 21.064 29.0105 21.272 28.9785 21.48C28.9465 21.704 28.8585 21.968 28.7145 22.272C28.8585 22.08 28.9785 21.88 29.0745 21.672C29.1705 21.48 29.2345 21.256 29.2665 21C29.3145 20.744 29.3385 20.56 29.3385 20.448C29.3385 19.6 29.0425 18.928 28.4505 18.432C27.8745 17.952 27.0265 17.712 25.9065 17.712L22.6905 17.736L21.9705 17.712C20.8345 17.712 20.2665 17.368 20.2665 16.68C20.2665 16.536 20.2905 16.376 20.3385 16.2L20.4345 15.936ZM25.5225 14.664L26.0265 14.4C27.1945 13.696 27.7785 12.688 27.7785 11.376C27.7785 11.28 27.7785 11.184 27.7785 11.088C27.7465 10.96 27.7065 10.72 27.6585 10.368C27.6105 10 27.3945 9.568 27.0105 9.072C26.6265 8.56 26.1305 8.192 25.5225 7.968C25.6345 8.048 25.7145 8.12 25.7625 8.184C25.8105 8.232 25.9305 8.392 26.1225 8.664C26.3145 8.936 26.4585 9.336 26.5545 9.864C26.6505 10.376 26.6985 11 26.6985 11.736C26.6985 12.2 26.6425 12.6 26.5305 12.936C26.4345 13.272 26.3145 13.56 26.1705 13.8C26.0265 14.04 25.9225 14.208 25.8585 14.304C25.7945 14.384 25.6825 14.504 25.5225 14.664ZM22.5225 7.896L21.9225 8.112C21.2185 8.416 20.6665 8.864 20.2665 9.456C19.8825 10.048 19.6905 10.672 19.6905 11.328C19.6905 12.192 19.9145 12.856 20.3625 13.32C20.8265 13.768 21.2345 14.104 21.5865 14.328L22.1145 14.592C21.9065 14.4 21.6425 14.096 21.3225 13.68C21.0185 13.248 20.8345 12.64 20.7705 11.856C20.7705 11.072 20.8665 10.392 21.0585 9.816C21.2665 9.224 21.6185 8.696 22.1145 8.232L22.5225 7.896ZM25.6185 5.544C25.9705 5.624 26.2665 5.832 26.5065 6.168L26.6985 6.48C26.7785 6.64 26.8905 6.8 27.0345 6.96C27.1465 7.04 27.2345 7.08 27.2985 7.08C27.3945 7.08 27.4825 7.04 27.5625 6.96C27.6425 6.88 27.6825 6.784 27.6825 6.672C27.6825 6.416 27.5065 6.16 27.1545 5.904C26.8025 5.632 26.4105 5.496 25.9785 5.496L25.6185 5.544ZM35.3856 18H29.8416V17.664C30.8336 17.664 31.3296 16.968 31.3296 15.576V3.336C31.3296 1.944 30.8336 1.248 29.8416 1.248V0.959999L33.9216 0.503999V9.984L34.3296 9.504C35.0016 8.784 35.6096 8.264 36.1536 7.944C36.6976 7.624 37.1376 7.448 37.4736 7.416C37.8096 7.384 38.0896 7.368 38.3136 7.368C39.3856 7.368 40.2416 7.72 40.8816 8.424C41.5216 9.128 41.8416 10.112 41.8416 11.376V15.576C41.8416 16.968 42.3376 17.664 43.3296 17.664V18H37.7616V17.664C38.7536 17.664 39.2496 16.968 39.2496 15.576V11.28L39.2256 10.56C39.2256 8.944 38.6496 8.136 37.4976 8.136C37.4016 8.136 37.2096 8.16 36.9216 8.208C36.6336 8.256 36.2736 8.432 35.8416 8.736C35.4256 9.024 34.9376 9.488 34.3776 10.128L33.9216 10.656V15.576C33.9216 16.968 34.4096 17.664 35.3856 17.664V18ZM37.6656 7.848C37.8576 7.848 38.0176 7.88 38.1456 7.944C38.6736 8.104 39.0576 8.376 39.2976 8.76C39.5376 9.128 39.6576 9.72 39.6576 10.536L39.6816 11.28V16.2C39.6816 16.44 39.6256 16.656 39.5136 16.848C39.4176 17.024 39.3296 17.152 39.2496 17.232C39.1696 17.312 39.0976 17.384 39.0336 17.448H41.5536C41.0736 17.176 40.8336 16.76 40.8336 16.2V11.352C40.8336 10.104 40.5856 9.2 40.0896 8.64C39.5936 8.08 38.8736 7.8 37.9296 7.8L37.6656 7.848ZM30.8496 1.272C30.9776 1.336 31.1056 1.408 31.2336 1.488C31.3616 1.552 31.4896 1.672 31.6176 1.848C31.7456 2.024 31.8096 2.288 31.8096 2.64V16.2C31.8096 16.44 31.7696 16.648 31.6896 16.824C31.6256 16.984 31.5376 17.112 31.4256 17.208C31.3296 17.288 31.2256 17.368 31.1136 17.448H33.6336C33.5376 17.384 33.4416 17.32 33.3456 17.256C33.2496 17.176 33.1616 17.064 33.0816 16.92C33.0016 16.776 32.9616 16.52 32.9616 16.152L32.9376 1.032L30.8496 1.272ZM44.5588 7.968H43.3828V7.656C43.4628 7.656 43.5588 7.648 43.6708 7.632C43.7828 7.6 44.0228 7.536 44.3908 7.44C44.7748 7.328 45.1988 6.968 45.6628 6.36C46.1268 5.752 46.4708 4.896 46.6948 3.792L46.8148 3.048H47.1508V7.632H49.9108V8.016H47.1508V14.736L47.2228 15.984C47.3188 16.976 47.6948 17.472 48.3508 17.472C48.5908 17.472 48.8708 17.4 49.1908 17.256L49.9108 16.824L50.2468 16.56L50.4388 16.848L50.0548 17.184C49.2708 17.792 48.6788 18.12 48.2788 18.168C47.8788 18.216 47.5748 18.24 47.3668 18.24C46.4868 18.24 45.7988 17.928 45.3028 17.304C44.8068 16.68 44.5588 15.768 44.5588 14.568V7.968ZM44.9908 14.28C44.9908 15.56 45.1988 16.488 45.6148 17.064C46.0308 17.624 46.6548 17.904 47.4868 17.904H47.7028L47.8228 17.88C47.6628 17.88 47.5188 17.864 47.3908 17.832C47.2788 17.784 47.1108 17.68 46.8868 17.52C46.6628 17.36 46.4868 17.104 46.3588 16.752C46.2308 16.384 46.1668 15.8 46.1668 15L46.1428 14.256V6.384C45.9828 6.592 45.8068 6.808 45.6148 7.032C45.4228 7.24 45.2148 7.408 44.9908 7.536V14.28Z" fill="#4A4A4A"/>
</svg>
