<?xml version="1.0" encoding="utf-8"?>
<!-- Generator: Adobe Illustrator 16.0.4, SVG Export Plug-In . SVG Version: 6.00 Build 0)  -->
<!DOCTYPE svg PUBLIC "-//W3C//DTD SVG 1.1//EN" "http://www.w3.org/Graphics/SVG/1.1/DTD/svg11.dtd">
<svg version="1.1" id="Outlines_Weiss" xmlns="http://www.w3.org/2000/svg" xmlns:xlink="http://www.w3.org/1999/xlink" x="0px"
	 y="0px" width="170px" height="83px" viewBox="0 0 170 83" enable-background="new 0 0 170 83" xml:space="preserve">
<polygon fill="#FFFFFF" points="52.99951,23.66504 42.94482,23.9668 42.94482,7.2417 32.78613,6.45215 32.78613,24.27197 
	19.67871,24.66553 19.67871,40.66797 32.78613,39.13525 32.78613,56.30127 42.94482,53.93311 42.94482,37.94775 52.99951,36.77246 
	"/>
<polygon fill="#FF5E64" points="36.5332,2.87695 28.12988,0 16.66797,7.80908 16.7373,8.21826 32.78613,9.67676 32.78613,6.45215 
	38.521,6.89746 "/>
<linearGradient id="SVGID_1_" gradientUnits="userSpaceOnUse" x1="1.06934" y1="13.08203" x2="29.70171" y2="29.61294">
	<stop  offset="0" style="stop-color:#FF66AB"/>
	<stop  offset="1" style="stop-color:#FF6B31"/>
</linearGradient>
<polygon fill="url(#SVGID_1_)" points="12.23828,7.80908 0,14.93311 4.70361,29.08984 15.17383,31.90088 19.67871,26.38867 
	19.67871,25.45605 16.7373,8.21826 "/>
<polygon fill="#FF1407" points="19.67871,25.45605 19.67871,24.66553 32.78613,24.27197 32.78613,9.67676 16.7373,8.21826 "/>
<linearGradient id="SVGID_2_" gradientUnits="userSpaceOnUse" x1="7.59814" y1="38.42139" x2="18.24459" y2="32.27466">
	<stop  offset="0" style="stop-color:#8888D4"/>
	<stop  offset="0.24708" style="stop-color:#8C88D4"/>
	<stop  offset="0.47382" style="stop-color:#9789D3"/>
	<stop  offset="0.6926" style="stop-color:#AA8AD3"/>
	<stop  offset="0.90529" style="stop-color:#C48CD2"/>
	<stop  offset="1" style="stop-color:#D28DD1"/>
</linearGradient>
<polygon fill="url(#SVGID_2_)" points="15.17383,31.90088 8.52832,40.03271 18.55273,32.80811 "/>
<linearGradient id="SVGID_3_" gradientUnits="userSpaceOnUse" x1="-1.7959" y1="18.04688" x2="26.83474" y2="34.57678">
	<stop  offset="0" style="stop-color:#FF66AB"/>
	<stop  offset="1" style="stop-color:#FF6B31"/>
</linearGradient>
<polygon fill="url(#SVGID_3_)" points="18.55273,32.80811 19.67871,31.99707 19.67871,26.38867 15.17383,31.90088 "/>
<linearGradient id="SVGID_4_" gradientUnits="userSpaceOnUse" x1="16.88477" y1="32.88867" x2="20.39771" y2="26.80408">
	<stop  offset="0" style="stop-color:#CD7CB3"/>
	<stop  offset="0.26341" style="stop-color:#D27BAF"/>
	<stop  offset="0.58637" style="stop-color:#E177A1"/>
	<stop  offset="0.93917" style="stop-color:#FA718A"/>
	<stop  offset="1" style="stop-color:#FF7085"/>
</linearGradient>
<polygon fill="url(#SVGID_4_)" points="18.55273,32.80811 19.67871,31.99707 19.67871,26.38867 15.17383,31.90088 "/>
<path fill="#F40608" d="M15.41211,13.0376"/>
<g>
	<polygon fill="#FF1E54" points="20.07617,24.65332 19.67871,24.66553 20.07617,24.65332 	"/>
	<polygon fill="#FF1E54" points="19.67871,25.45605 17.63574,13.479 15.41211,13.0376 19.67871,25.77344 	"/>
</g>
<polygon fill="#FF2450" points="32.78613,39.13525 29.58594,39.50977 32.78613,44.17578 "/>
<linearGradient id="SVGID_5_" gradientUnits="userSpaceOnUse" x1="42.94482" y1="19.33984" x2="63.11035" y2="19.33984">
	<stop  offset="0.17245" style="stop-color:#F74C3A"/>
	<stop  offset="0.28058" style="stop-color:#F85139"/>
	<stop  offset="0.41849" style="stop-color:#F86139"/>
	<stop  offset="0.57256" style="stop-color:#FA7B38"/>
	<stop  offset="0.73727" style="stop-color:#FC9F37"/>
	<stop  offset="0.82012" style="stop-color:#FDB536"/>
	<stop  offset="0.98747" style="stop-color:#FDB536"/>
</linearGradient>
<polygon fill="url(#SVGID_5_)" points="63.11035,22.28516 54.36572,21.21191 44.55225,16.73682 42.94482,17.98975 
	42.94482,16.46582 44.02197,16.39453 "/>
<linearGradient id="SVGID_6_" gradientUnits="userSpaceOnUse" x1="42.7627" y1="35.39893" x2="62.61874" y2="38.82045">
	<stop  offset="0" style="stop-color:#EE006F"/>
	<stop  offset="0.0872" style="stop-color:#F00D68"/>
	<stop  offset="0.24789" style="stop-color:#F32F58"/>
	<stop  offset="0.40557" style="stop-color:#F85745"/>
	<stop  offset="0.45246" style="stop-color:#F96643"/>
	<stop  offset="0.63586" style="stop-color:#FC9F3A"/>
	<stop  offset="0.72428" style="stop-color:#FDB536"/>
	<stop  offset="0.85578" style="stop-color:#FDB536"/>
	<stop  offset="1" style="stop-color:#FDB536"/>
</linearGradient>
<polygon fill="url(#SVGID_6_)" points="54.36572,21.24854 42.729,34.45215 48.92334,37.24902 42.94482,37.94775 42.94482,52.05078 
	51.46533,53.38428 51.46533,40.78027 53.50244,39.31689 62.97266,32.51465 63.11035,22.28516 "/>
<polygon fill="#F8A33C" points="63.11035,22.28516 54.36572,21.21191 44.55225,16.73682 42.94482,17.98975 42.94482,16.46582 
	44.02197,16.39453 "/>
<linearGradient id="SVGID_7_" gradientUnits="userSpaceOnUse" x1="43.99854" y1="52.54248" x2="52.22855" y2="34.89315">
	<stop  offset="0" style="stop-color:#EE006F"/>
	<stop  offset="0.16491" style="stop-color:#EE046D;stop-opacity:0.83509"/>
	<stop  offset="0.32156" style="stop-color:#EF0F6A;stop-opacity:0.67844"/>
	<stop  offset="0.47491" style="stop-color:#F02264;stop-opacity:0.52509"/>
	<stop  offset="0.62624" style="stop-color:#F23D5C;stop-opacity:0.37376"/>
	<stop  offset="0.77616" style="stop-color:#F46051;stop-opacity:0.22384"/>
	<stop  offset="0.92292" style="stop-color:#F68A44;stop-opacity:0.07708"/>
	<stop  offset="1" style="stop-color:#F8A33C;stop-opacity:0"/>
</linearGradient>
<polygon fill="url(#SVGID_7_)" points="52.99951,36.77246 42.94482,37.94775 42.94482,52.05078 51.46533,53.38428 
	51.46533,40.78027 55.0415,38.21191 55.0415,36.2041 52.99951,36.2041 "/>
<linearGradient id="SVGID_8_" gradientUnits="userSpaceOnUse" x1="42.94482" y1="44.79395" x2="57.05811" y2="44.79395">
	<stop  offset="0" style="stop-color:#FF1A8B;stop-opacity:0.6"/>
	<stop  offset="1" style="stop-color:#F8A33C;stop-opacity:0"/>
</linearGradient>
<polygon fill="url(#SVGID_8_)" points="52.99951,36.77246 42.94482,37.94775 42.94482,52.05078 51.46533,53.38428 
	51.46533,40.78027 57.05811,36.76367 55.0415,36.2041 52.99951,36.2041 "/>
<polygon fill="#F8A33C" points="63.11035,22.28516 54.36572,21.21191 44.55225,16.73682 42.94482,17.98975 42.94482,16.46582 
	44.02197,16.39453 "/>
<linearGradient id="SVGID_9_" gradientUnits="userSpaceOnUse" x1="52.2373" y1="21.41309" x2="53.05505" y2="19.30757">
	<stop  offset="0.09631" style="stop-color:#F01C7E"/>
	<stop  offset="0.23583" style="stop-color:#F23A70"/>
	<stop  offset="0.47557" style="stop-color:#F4675A"/>
	<stop  offset="0.68944" style="stop-color:#F6884A"/>
	<stop  offset="0.86738" style="stop-color:#F79C40"/>
	<stop  offset="0.98747" style="stop-color:#F8A33C"/>
</linearGradient>
<polygon fill="url(#SVGID_9_)" points="63.11035,22.28516 54.35986,21.25146 44.55225,16.73682 42.94482,17.98975 
	42.94482,16.46582 44.02197,16.39453 "/>
<linearGradient id="SVGID_10_" gradientUnits="userSpaceOnUse" x1="42.30127" y1="51.51074" x2="55.65983" y2="35.59063">
	<stop  offset="0" style="stop-color:#F40608;stop-opacity:0"/>
	<stop  offset="0.26254" style="stop-color:#F70D08;stop-opacity:0.18931"/>
	<stop  offset="0.55474" style="stop-color:#FF1B09;stop-opacity:0.4"/>
	<stop  offset="0.59686" style="stop-color:#FF2817;stop-opacity:0.36217"/>
	<stop  offset="0.67642" style="stop-color:#FF4A3C;stop-opacity:0.29069"/>
	<stop  offset="0.78498" style="stop-color:#FF8177;stop-opacity:0.19317"/>
	<stop  offset="0.9169" style="stop-color:#FFCCC8;stop-opacity:0.07465"/>
	<stop  offset="1" style="stop-color:#FFFFFF;stop-opacity:0"/>
</linearGradient>
<polygon fill="url(#SVGID_10_)" points="52.99951,36.77246 42.94482,37.94775 42.94482,52.05078 51.46533,53.38428 
	51.46533,40.78027 57.05811,36.76367 55.0415,36.2041 52.99951,36.2041 "/>
<linearGradient id="SVGID_11_" gradientUnits="userSpaceOnUse" x1="27.26855" y1="39.25586" x2="55.17381" y2="31.77867">
	<stop  offset="0" style="stop-color:#F74F40"/>
	<stop  offset="0.07619" style="stop-color:#F9495C"/>
	<stop  offset="0.23962" style="stop-color:#FE39A2"/>
	<stop  offset="0.25624" style="stop-color:#FF37A9"/>
	<stop  offset="0.46038" style="stop-color:#FF39A0"/>
	<stop  offset="0.4751" style="stop-color:#FE3A9A"/>
	<stop  offset="0.59578" style="stop-color:#FA4669"/>
	<stop  offset="0.68793" style="stop-color:#F84C4C"/>
	<stop  offset="0.74001" style="stop-color:#F74F40"/>
</linearGradient>
<polygon fill="url(#SVGID_11_)" points="52.99951,36.77246 52.99951,23.66504 42.94482,23.9668 42.94482,16.46582 
	41.29346,16.62158 39.69775,20.59326 34.90137,24.43848 35.0957,28.88281 30.63965,24.33643 28.91406,24.38818 33.53711,32.08154 
	33.53711,32.45508 26.13574,33.98535 26.24219,35.42627 27.55957,36.3335 29.53613,39.51562 32.78613,39.13525 32.78613,44.16357 
	33.53711,45.15771 34.0166,46.86572 34.76465,48.43115 37.73486,51.24219 40.2251,54.56689 42.93408,53.93506 42.94482,52.05078 
	42.94482,37.94775 "/>
<polygon opacity="0.83" fill="#F8A33C" points="42.94482,16.46582 41.29346,16.62158 39.69775,20.59326 42.94482,17.98975 "/>
<polygon fill="#FFA02D" points="44.00537,17.13232 44.02197,16.39453 42.94482,16.46582 42.94482,17.98975 44.01709,17.13037 "/>
<polygon opacity="0.6" fill="#F40608" points="43.29639,46.50488 44.55225,43.80371 46.8667,45.66846 44.83545,48.69727 "/>
<polygon opacity="0.35" fill="#D10035" points="44.83545,48.69727 46.47607,46.25049 50.65479,50.44727 46.07959,50.44727 "/>
<linearGradient id="SVGID_12_" gradientUnits="userSpaceOnUse" x1="42.94482" y1="51.91602" x2="51.46533" y2="51.91602">
	<stop  offset="0" style="stop-color:#D10035;stop-opacity:0.2"/>
	<stop  offset="0.13299" style="stop-color:#D10035"/>
	<stop  offset="0.76776" style="stop-color:#D00035"/>
	<stop  offset="1" style="stop-color:#D10035;stop-opacity:0"/>
</linearGradient>
<polygon opacity="0.13" fill="url(#SVGID_12_)" points="42.94482,50.44727 51.46533,50.44727 51.46533,53.38428 42.94482,52.05078 
	"/>
<linearGradient id="SVGID_13_" gradientUnits="userSpaceOnUse" x1="39.31445" y1="37.5957" x2="50.79125" y2="48.05352">
	<stop  offset="0" style="stop-color:#FFFFFF"/>
	<stop  offset="0.99269" style="stop-color:#FFFFFF;stop-opacity:0.3"/>
</linearGradient>
<polygon opacity="0.18" fill="url(#SVGID_13_)" points="38.21924,34.354 35.93945,36.76367 51.46533,49.36572 51.46533,49.36572 
	51.46533,47.81299 "/>
<g>
	<linearGradient id="SVGID_14_" gradientUnits="userSpaceOnUse" x1="44.19727" y1="41.21436" x2="46.11493" y2="39.19098">
		<stop  offset="0.16056" style="stop-color:#EE006F"/>
		<stop  offset="0.3654" style="stop-color:#E5005D;stop-opacity:0.75598"/>
		<stop  offset="0.76931" style="stop-color:#D70040;stop-opacity:0.27481"/>
		<stop  offset="1" style="stop-color:#D10035;stop-opacity:0"/>
	</linearGradient>
	<polygon fill="url(#SVGID_14_)" points="45.39209,41.68604 46.50146,39.13525 43.71436,39.99316 	"/>
	<linearGradient id="SVGID_15_" gradientUnits="userSpaceOnUse" x1="43.29639" y1="44.63965" x2="44.5083" y2="44.63965">
		<stop  offset="0" style="stop-color:#D10035;stop-opacity:0.4"/>
		<stop  offset="0.13299" style="stop-color:#D10035"/>
		<stop  offset="0.59931" style="stop-color:#D00035"/>
		<stop  offset="1" style="stop-color:#D10035;stop-opacity:0.1"/>
	</linearGradient>
	<polygon opacity="0.27" fill="url(#SVGID_15_)" points="43.34521,42.7749 43.29639,46.50488 44.5083,43.71875 	"/>
</g>
<g>
	<polygon opacity="0.04" fill="#FFFFFF" points="50.14014,46.47559 49.74756,42.2251 46.12158,39.67383 47.65283,43.96631 	"/>
</g>
<polygon opacity="0.55" fill="#EE006F" points="42.94482,42.4502 40.06299,40.11133 40.06299,38.92725 42.70068,39.05908 
	42.94482,39.31543 "/>
<linearGradient id="SVGID_16_" gradientUnits="userSpaceOnUse" x1="32.60449" y1="43.0166" x2="32.01242" y2="43.43199">
	<stop  offset="0" style="stop-color:#FFFFFF"/>
	<stop  offset="0.99269" style="stop-color:#FFFFFF;stop-opacity:0.5"/>
</linearGradient>
<polygon opacity="0.13" fill="url(#SVGID_16_)" points="31.57812,42.41455 32.78613,42.81836 32.78613,44.20947 "/>
<linearGradient id="SVGID_17_" gradientUnits="userSpaceOnUse" x1="46.44531" y1="42.10986" x2="46.50279" y2="40.1825">
	<stop  offset="0.23896" style="stop-color:#EE006F"/>
	<stop  offset="0.5256" style="stop-color:#E5005C;stop-opacity:0.66102"/>
	<stop  offset="1" style="stop-color:#D10035;stop-opacity:0.1"/>
</linearGradient>
<polygon fill="url(#SVGID_17_)" points="47.46045,43.80371 45.39209,41.68604 46.15869,39.92285 "/>
<linearGradient id="SVGID_18_" gradientUnits="userSpaceOnUse" x1="43.56348" y1="16.56836" x2="43.59225" y2="18.20608">
	<stop  offset="0" style="stop-color:#F74F40"/>
	<stop  offset="1" style="stop-color:#FFA02D;stop-opacity:0.3"/>
</linearGradient>
<polygon opacity="0.42" fill="url(#SVGID_18_)" points="43.16357,16.45166 43.12549,17.9126 44.00537,17.18262 44.02197,16.39453 
	"/>
<linearGradient id="SVGID_19_" gradientUnits="userSpaceOnUse" x1="46.6084" y1="16.87744" x2="46.57886" y2="17.12999">
	<stop  offset="0.01437" style="stop-color:#FF956B"/>
	<stop  offset="0.47437" style="stop-color:#FEA550"/>
	<stop  offset="1" style="stop-color:#FDB536"/>
</linearGradient>
<polygon opacity="0.31" fill="url(#SVGID_19_)" points="44.02197,16.39453 44.00537,17.14014 49.02393,18.81348 "/>
<polygon opacity="0.12" fill="#FFFFFF" points="43.57373,16.42432 42.94482,17.00488 42.94482,16.46582 "/>
<linearGradient id="SVGID_20_" gradientUnits="userSpaceOnUse" x1="30.21924" y1="39.38525" x2="26.51194" y2="34.71904">
	<stop  offset="0" style="stop-color:#FF2A8B"/>
	<stop  offset="1" style="stop-color:#FF2A8B;stop-opacity:0.4"/>
</linearGradient>
<polygon opacity="0.73" fill="url(#SVGID_20_)" points="26.14648,34.12354 26.79199,35.17773 27.55957,36.3335 29.53613,39.51562 
	30.97656,39.34717 26.2207,33.96777 26.13574,33.98535 "/>
<polygon opacity="0.34" fill="#FF2A8B" points="37.43213,34.24756 35.54004,33.30566 35.375,34.29492 35.61035,34.29492 
	35.1748,36.3208 37.11768,35.03662 36.24707,34.29492 "/>
<polygon opacity="0.43" fill="#FF2A8B" points="36.53418,36.13477 36.18652,36.06689 34.97852,37.39746 34.49316,37.54199 
	34.875,41.80615 36.4541,39.04688 36.30371,38.20264 36.69385,37.37646 35.93945,36.76367 "/>
<linearGradient id="SVGID_21_" gradientUnits="userSpaceOnUse" x1="38.34082" y1="45.64941" x2="36.08012" y2="47.36206">
	<stop  offset="0" style="stop-color:#FF2A8B"/>
	<stop  offset="1" style="stop-color:#FF2A8B;stop-opacity:0.4"/>
</linearGradient>
<polygon opacity="0.5" fill="url(#SVGID_21_)" points="41.66943,50.44727 41.37256,50.27686 41.37256,49.93652 38.06201,46.50488 
	37.43213,43.93115 32.78613,40.70996 32.85645,44.02246 34.49316,46.37451 35.2998,47.74463 37.01221,49.93652 40.2085,53.38428 "/>
<polygon opacity="0.83" fill="#FF2A8B" points="32.78613,40.70996 34.19434,41.68604 33.61035,38.2002 30.97656,38.83936 
	30.97656,39.34717 32.78613,39.13525 "/>
<linearGradient id="SVGID_22_" gradientUnits="userSpaceOnUse" x1="17.63574" y1="19.07227" x2="32.78613" y2="19.07227">
	<stop  offset="0" style="stop-color:#EE006F"/>
	<stop  offset="0.23928" style="stop-color:#F40E78;stop-opacity:0.85643"/>
	<stop  offset="0.69685" style="stop-color:#FC2286;stop-opacity:0.58189"/>
	<stop  offset="1" style="stop-color:#FF2A8B;stop-opacity:0.4"/>
</linearGradient>
<polyline fill="url(#SVGID_22_)" points="17.63574,13.479 32.78613,16.83691 32.78613,24.27197 19.67871,24.66553 17.63574,13.479 
	"/>
<linearGradient id="SVGID_23_" gradientUnits="userSpaceOnUse" x1="17.63574" y1="19.07227" x2="32.78613" y2="19.07227">
	<stop  offset="0" style="stop-color:#CD0000"/>
	<stop  offset="0.37983" style="stop-color:#E70B04"/>
	<stop  offset="0.73738" style="stop-color:#F91206"/>
	<stop  offset="1" style="stop-color:#FF1407"/>
</linearGradient>
<polyline fill="url(#SVGID_23_)" points="17.63574,13.479 32.78613,16.83691 32.78613,24.27197 19.67871,24.66553 17.63574,13.479 
	"/>
<polygon fill="#FF2A8B" points="34.84277,24.48535 44.55225,16.70166 36.81982,31.78076 35.09961,28.95508 "/>
<linearGradient id="SVGID_24_" gradientUnits="userSpaceOnUse" x1="39.9502" y1="23.25684" x2="49.27857" y2="28.64258">
	<stop  offset="0" style="stop-color:#EE006F"/>
	<stop  offset="0.01361" style="stop-color:#EE016E"/>
	<stop  offset="0.45138" style="stop-color:#F32B55"/>
	<stop  offset="0.795" style="stop-color:#F64546"/>
	<stop  offset="1" style="stop-color:#F74F40"/>
</linearGradient>
<polygon fill="url(#SVGID_24_)" points="44.55225,16.70166 54.36572,21.24854 42.729,34.45215 36.81982,31.78076 "/>
<polygon opacity="0.83" fill="#FFFFFF" points="52.99951,23.66504 42.94482,23.9668 42.94482,7.2417 32.78613,6.45215 
	32.78613,24.27197 19.67871,24.66553 19.67871,40.66797 32.78613,39.13525 32.78613,56.30127 42.94482,53.93311 42.94482,37.94775 
	52.99951,36.77246 "/>
<linearGradient id="SVGID_25_" gradientUnits="userSpaceOnUse" x1="45.36914" y1="17.08008" x2="54.30412" y2="21.25258">
	<stop  offset="0.01524" style="stop-color:#FFFFFF;stop-opacity:0"/>
	<stop  offset="0.11744" style="stop-color:#FFFFFF;stop-opacity:0.14295"/>
	<stop  offset="0.7302" style="stop-color:#FFFFFF"/>
	<stop  offset="0.98747" style="stop-color:#FFFFFF;stop-opacity:0"/>
</linearGradient>
<polygon opacity="0.51" fill="url(#SVGID_25_)" points="54.34521,21.28271 44.5376,16.73291 44.59326,16.72363 54.39014,21.25146 
	"/>
<linearGradient id="SVGID_26_" gradientUnits="userSpaceOnUse" x1="43.27832" y1="34.62793" x2="48.97229" y2="37.32975">
	<stop  offset="0" style="stop-color:#FFFFFF;stop-opacity:0.99694"/>
	<stop  offset="0.88496" style="stop-color:#FFFFFF;stop-opacity:0.20319"/>
	<stop  offset="1" style="stop-color:#FFFFFF;stop-opacity:0.1"/>
</linearGradient>
<polygon fill="url(#SVGID_26_)" points="42.81299,34.39258 49.01514,37.23828 48.81592,37.26123 42.68896,34.46045 "/>
<linearGradient id="SVGID_27_" gradientUnits="userSpaceOnUse" x1="42.68896" y1="29.07422" x2="52.31592" y2="29.07422">
	<stop  offset="0" style="stop-color:#FFFFFF;stop-opacity:0.99694"/>
	<stop  offset="0.88496" style="stop-color:#FFFFFF;stop-opacity:0.20319"/>
	<stop  offset="1" style="stop-color:#FFFFFF;stop-opacity:0.1"/>
</linearGradient>
<polygon fill="url(#SVGID_27_)" points="42.68896,34.46045 42.71045,34.43652 52.19678,23.67285 52.31592,23.68555 
	42.81299,34.47559 "/>
<linearGradient id="SVGID_28_" gradientUnits="userSpaceOnUse" x1="35.21924" y1="29.13135" x2="36.80797" y2="31.70253">
	<stop  offset="0" style="stop-color:#FFFFFF;stop-opacity:0.3"/>
	<stop  offset="1" style="stop-color:#FFFFFF"/>
</linearGradient>
<polygon fill="url(#SVGID_28_)" points="36.84424,31.79297 36.82275,31.83691 34.98242,28.81592 35.09277,28.81592 
	36.84424,31.65674 "/>
<linearGradient id="SVGID_29_" gradientUnits="userSpaceOnUse" x1="37.18506" y1="30.99805" x2="43.35757" y2="19.09438">
	<stop  offset="0" style="stop-color:#FFFFFF;stop-opacity:0.99694"/>
	<stop  offset="0.83102" style="stop-color:#FFFFFF;stop-opacity:0.19802"/>
	<stop  offset="0.93298" style="stop-color:#FFFFFF;stop-opacity:0.1"/>
</linearGradient>
<path fill="url(#SVGID_29_)" d="M36.74561,31.71045c0.45801-0.89307,7.79199-15.00879,7.79199-15.00879l0.02441,0.0127
	c0,0-7.67676,14.99951-7.73926,15.12256L36.74561,31.71045z"/>
<linearGradient id="SVGID_30_" gradientUnits="userSpaceOnUse" x1="38.15088" y1="36.7998" x2="42.98291" y2="36.7998">
	<stop  offset="0" style="stop-color:#FFFFFF;stop-opacity:0.99694"/>
	<stop  offset="0.73162" style="stop-color:#FFFFFF;stop-opacity:0.2"/>
	<stop  offset="1" style="stop-color:#FFFFFF;stop-opacity:0"/>
</linearGradient>
<polygon fill="url(#SVGID_30_)" points="42.92041,39.37158 38.15088,34.354 38.26416,34.22852 42.98291,39.25781 "/>
<path fill="none" stroke="#FFFFFF" stroke-width="0.4" stroke-miterlimit="10" d="M36.33984,36.55664"/>
<linearGradient id="SVGID_31_" gradientUnits="userSpaceOnUse" x1="36.56152" y1="35.19043" x2="38.36377" y2="35.19043">
	<stop  offset="0" style="stop-color:#FFFFFF;stop-opacity:0.1"/>
	<stop  offset="1" style="stop-color:#FFFFFF;stop-opacity:0.99694"/>
</linearGradient>
<polygon fill="url(#SVGID_31_)" points="36.62451,36.15186 36.56152,36.10547 38.26416,34.22852 38.36377,34.33398 "/>
<linearGradient id="SVGID_32_" gradientUnits="userSpaceOnUse" x1="18.10449" y1="32.57031" x2="23.57648" y2="47.60448">
	<stop  offset="0" style="stop-color:#FF3581"/>
	<stop  offset="0.41145" style="stop-color:#FF3584"/>
	<stop  offset="0.65722" style="stop-color:#FF368C"/>
	<stop  offset="0.85882" style="stop-color:#FF369A"/>
	<stop  offset="1" style="stop-color:#FF37A9"/>
</linearGradient>
<polygon fill="url(#SVGID_32_)" points="8.52832,40.03271 19.67871,31.99707 19.67871,40.66797 32.78613,39.13525 
	32.78613,44.25244 27.48535,44.51904 "/>
<linearGradient id="SVGID_33_" gradientUnits="userSpaceOnUse" x1="27.54199" y1="39.44824" x2="29.63477" y2="43.07303">
	<stop  offset="0" style="stop-color:#FF5E64"/>
	<stop  offset="0.49323" style="stop-color:#FF4C84;stop-opacity:0.50677"/>
	<stop  offset="1" style="stop-color:#FF37A9;stop-opacity:0"/>
</linearGradient>
<polyline fill="url(#SVGID_33_)" points="29.62793,39.51562 26.88965,39.82471 27.01855,42.50488 31.35059,42.08203 
	29.62793,39.51562 "/>
<path fill="#FF37A9" d="M19.67871,33.11035l-1.12598-0.30225l-4.66455,3.36133c1.6958,0.12744,2.47314-0.12695,3.06494-0.29834
	c0.59277-0.17139,1.51855-0.77637,2.16309-0.82178c0.08887-0.00635,0.45117-0.06885,0.5625-0.30859V33.11035z"/>
<polygon opacity="0.06" fill="#FFFFFF" points="63.02832,22.26904 54.01611,25.97461 53.72607,38.92725 "/>
<linearGradient id="SVGID_34_" gradientUnits="userSpaceOnUse" x1="59.42578" y1="20.60254" x2="59.07295" y2="22.31441">
	<stop  offset="0" style="stop-color:#FFFFFF"/>
	<stop  offset="1" style="stop-color:#FFFFFF;stop-opacity:0"/>
</linearGradient>
<polygon opacity="0.17" fill="url(#SVGID_34_)" points="56.66846,20.98779 63.11035,22.28516 55.23975,21.35547 "/>
<polygon opacity="0.05" fill="#FFFFFF" points="46.6001,17.63135 47.96924,17.61279 51.46533,18.69141 55.7085,21.05713 
	54.02002,21.08057 "/>
<polygon fill="#FF2450" points="32.78613,39.13525 29.58594,39.50977 32.78613,44.17578 "/>
<linearGradient id="SVGID_35_" gradientUnits="userSpaceOnUse" x1="32.60449" y1="43.0166" x2="32.01242" y2="43.43199">
	<stop  offset="0" style="stop-color:#FFFFFF"/>
	<stop  offset="0.99269" style="stop-color:#FFFFFF;stop-opacity:0.5"/>
</linearGradient>
<polygon opacity="0.13" fill="url(#SVGID_35_)" points="31.57812,42.41455 32.78613,42.81836 32.78613,44.20947 "/>
<polygon opacity="0.53" fill="#D10035" points="32.78613,40.70996 30.77734,39.95068 30.55273,39.55029 30.55273,39.39648 
	32.78613,39.13525 "/>
<polygon fill="#F40608" points="19.67871,33.11035 19.67871,31.99707 18.55273,32.80811 "/>
<linearGradient id="SVGID_36_" gradientUnits="userSpaceOnUse" x1="42.81104" y1="23.9668" x2="42.81104" y2="7.24561">
	<stop  offset="0" style="stop-color:#000000;stop-opacity:0"/>
	<stop  offset="0.07364" style="stop-color:#090909;stop-opacity:0.10349"/>
	<stop  offset="0.19572" style="stop-color:#232323;stop-opacity:0.27503"/>
	<stop  offset="0.35006" style="stop-color:#4B4B4B;stop-opacity:0.49191"/>
	<stop  offset="0.49813" style="stop-color:#797979;stop-opacity:0.7"/>
	<stop  offset="1" style="stop-color:#747474"/>
</linearGradient>
<polygon fill="url(#SVGID_36_)" points="42.94482,23.9668 42.67725,23.9668 42.67725,7.31445 42.94482,7.24561 "/>
<linearGradient id="SVGID_37_" gradientUnits="userSpaceOnUse" x1="32.78223" y1="6.98438" x2="42.94482" y2="6.98438">
	<stop  offset="0" style="stop-color:#000000;stop-opacity:0.05"/>
	<stop  offset="0.1039" style="stop-color:#040404;stop-opacity:0.16314"/>
	<stop  offset="0.21363" style="stop-color:#111111;stop-opacity:0.28263"/>
	<stop  offset="0.32609" style="stop-color:#262626;stop-opacity:0.40508"/>
	<stop  offset="0.4404" style="stop-color:#444444;stop-opacity:0.52955"/>
	<stop  offset="0.55506" style="stop-color:#696969;stop-opacity:0.65441"/>
	<stop  offset="0.59692" style="stop-color:#797979;stop-opacity:0.7"/>
	<stop  offset="1" style="stop-color:#747474"/>
</linearGradient>
<polygon fill="url(#SVGID_37_)" points="42.94092,7.5166 32.78223,6.72705 32.79102,6.45215 42.94482,7.24561 "/>
<linearGradient id="SVGID_38_" gradientUnits="userSpaceOnUse" x1="32.92725" y1="39.13525" x2="32.92725" y2="56.30127">
	<stop  offset="0" style="stop-color:#000000;stop-opacity:0"/>
	<stop  offset="0.05938" style="stop-color:#050505;stop-opacity:0.11594"/>
	<stop  offset="0.12631" style="stop-color:#121212;stop-opacity:0.2466"/>
	<stop  offset="0.19691" style="stop-color:#292929;stop-opacity:0.38445"/>
	<stop  offset="0.27006" style="stop-color:#484848;stop-opacity:0.52728"/>
	<stop  offset="0.34448" style="stop-color:#717171;stop-opacity:0.67258"/>
	<stop  offset="0.35853" style="stop-color:#797979;stop-opacity:0.7"/>
	<stop  offset="1" style="stop-color:#747474"/>
</linearGradient>
<rect x="32.78613" y="39.13525" fill="url(#SVGID_38_)" width="0.28174" height="17.16602"/>
<linearGradient id="SVGID_39_" gradientUnits="userSpaceOnUse" x1="42.81592" y1="37.94775" x2="42.81592" y2="53.98096">
	<stop  offset="0" style="stop-color:#000000;stop-opacity:0"/>
	<stop  offset="0.16735" style="stop-color:#030303;stop-opacity:0.1468"/>
	<stop  offset="0.30986" style="stop-color:#0E0E0E;stop-opacity:0.2718"/>
	<stop  offset="0.44325" style="stop-color:#1F1F1F;stop-opacity:0.3888"/>
	<stop  offset="0.57116" style="stop-color:#383838;stop-opacity:0.501"/>
	<stop  offset="0.69395" style="stop-color:#585858;stop-opacity:0.60871"/>
	<stop  offset="0.79803" style="stop-color:#797979;stop-opacity:0.7"/>
	<stop  offset="1" style="stop-color:#747474"/>
</linearGradient>
<polygon fill="url(#SVGID_39_)" points="42.95459,53.98096 42.67725,53.93311 42.67725,37.94775 42.95459,37.94775 "/>
<polygon fill="#747474" points="32.78613,56.35498 32.78613,56.0708 42.93311,53.70459 42.95459,53.98096 "/>
<g>
	<path d="M61.91211,53.8584c-1.81787,0-3.10889-0.42529-4.28076-1.59668l1.20605-1.20605
		c0.8833,0.88428,1.88574,1.1709,3.10889,1.1709c1.59619,0,2.49658-0.6792,2.49658-1.86768
		c0-0.54248-0.13574-0.96777-0.47559-1.25684c-0.30566-0.27148-0.71338-0.42334-1.32471-0.50928l-1.42676-0.20312
		c-0.98535-0.1543-1.75-0.4585-2.27637-0.97021c-0.59473-0.54248-0.90039-1.32324-0.90039-2.32617
		c0-2.10596,1.52881-3.53271,4.04297-3.53271c1.61328,0,2.71777,0.40771,3.75391,1.37598l-1.15479,1.15527
		c-0.74756-0.71436-1.63086-0.93457-2.66699-0.93457c-1.42676,0-2.19141,0.78076-2.19141,1.88525
		c0,0.44092,0.11914,0.84912,0.44141,1.12012c0.30615,0.27344,0.6626,0.44336,1.3252,0.54492l1.44385,0.22021
		c1.10449,0.16992,1.71582,0.42578,2.24219,0.8999c0.64551,0.59521,0.98486,1.42676,0.98486,2.48047
		C66.26025,52.5332,64.45996,53.8584,61.91211,53.8584z"/>
	<path d="M78.50879,53.75684h-1.59717l-2.46289-8.47607l-2.44629,8.47607h-1.59668l-3.15918-12.09473h1.93652l2.10596,8.646
		l2.42969-8.646h1.47705l2.4292,8.646l2.10645-8.646h1.93701L78.50879,53.75684z"/>
	<path d="M84.11621,53.75684V41.66211h1.8335v12.09473H84.11621z"/>
	<path d="M93.20312,43.30908v10.44775h-1.83447V43.30908h-3.32959v-1.64697h8.49365v1.64697H93.20312z"/>
	<path d="M97.68848,53.75684v-1.58057l5.58789-8.86719h-5.3501v-1.64697h7.50879v1.49512l-5.62305,8.95264h5.62305v1.64697H97.68848
		z"/>
	<path d="M108.17041,53.75684V41.66211h7.72852v1.64697h-5.89502v3.53467h5.02881v1.62988h-5.02881v3.63623h5.89502v1.64697
		H108.17041z"/>
	<path d="M125.07227,53.75684l-2.54688-5.0957h-2.29346v5.0957h-1.83447V41.66211h4.68799
		c2.29346,0,3.75293,1.47754,3.75293,3.53271c0,1.73291-1.05176,2.83789-2.41211,3.21045l2.78711,5.35156H125.07227z
		 M122.94873,43.30908h-2.7168v3.78857h2.7168c1.22363,0,2.05518-0.69678,2.05518-1.88525
		C125.00391,44.02344,124.17236,43.30908,122.94873,43.30908z"/>
	<path d="M129.52441,53.75684V41.66211h1.83301v10.44775h5.25977v1.64697H129.52441z"/>
	<path d="M145.6543,53.75684l-0.83105-2.42969h-4.77393l-0.83154,2.42969h-1.95361l4.43457-12.09473h1.479l4.43066,12.09473
		H145.6543z M142.47852,44.39648l-1.88574,5.36914h3.7207L142.47852,44.39648z"/>
	<path d="M156.73438,53.75684l-5.5918-8.51123v8.51123h-1.83301V41.66211h1.68262l5.58789,8.49414v-8.49414h1.83301v12.09473
		H156.73438z"/>
	<path d="M169.08301,52.22656c-0.84863,1.0542-1.91895,1.53027-3.43066,1.53027h-4.24707V41.66211h4.24707
		c1.51172,0,2.58203,0.47607,3.43066,1.52832C169.9668,44.27734,170,45.77246,170,47.7085
		C170,49.64648,169.9668,51.13965,169.08301,52.22656z M167.51758,44.125c-0.50684-0.59521-1.2041-0.83154-2.06836-0.83154h-2.21191
		v8.83203h2.21191c0.86426,0,1.56152-0.23828,2.06836-0.83154c0.5957-0.66357,0.64648-1.78418,0.64648-3.58545
		C168.16406,45.90918,168.11328,44.78662,167.51758,44.125z"/>
	<path d="M58.70166,70.74414V58.65088h1.83447v12.09326H58.70166z"/>
	<path d="M71.2041,70.74414l-5.58887-8.50977v8.50977h-1.83398V58.65088h1.68164l5.58789,8.49219v-8.49219h1.83496v12.09326H71.2041
		z"/>
	<path d="M83.55371,70.74414l-5.58887-8.50977v8.50977h-1.83398V58.65088h1.68164l5.58838,8.49219v-8.49219h1.83447v12.09326
		H83.55371z"/>
	<path d="M95.42822,69.62354c-0.78076,0.78076-1.80029,1.22168-3.12549,1.22168c-1.32422,0-2.34424-0.44092-3.12598-1.22168
		c-1.18848-1.18848-1.22266-2.39453-1.22266-4.92627c0-2.53125,0.03418-3.7373,1.22266-4.92578
		c0.78174-0.78076,1.80176-1.22412,3.12598-1.22412c1.3252,0,2.34473,0.44336,3.12549,1.22412
		c1.18848,1.18848,1.22266,2.39453,1.22266,4.92578C96.65088,67.229,96.6167,68.43506,95.42822,69.62354z M94.10303,60.92676
		c-0.4585-0.47607-1.06934-0.74756-1.80029-0.74756s-1.3418,0.27148-1.80078,0.74756
		c-0.59424,0.646-0.71338,1.37598-0.71338,3.77051c0,2.39502,0.11914,3.10938,0.71338,3.75342
		c0.45898,0.47607,1.06982,0.76514,1.80078,0.76514s1.3418-0.28906,1.80029-0.76514c0.61182-0.62842,0.71436-1.3584,0.71436-3.75342
		C94.81738,62.30273,94.71484,61.55518,94.10303,60.92676z"/>
	<path d="M103.27637,70.74414h-1.42676l-3.97363-12.09326h1.90186l2.78613,8.79834l2.78516-8.79834h1.93604L103.27637,70.74414z"/>
	<path d="M115.21875,70.74414l-0.83203-2.42822h-4.77344l-0.83203,2.42822h-1.95312l4.43262-12.09326h1.47754l4.43311,12.09326
		H115.21875z M112.04248,61.38525l-1.88525,5.36719h3.71973L112.04248,61.38525z"/>
	<path d="M121.96338,60.29834v10.4458h-1.83496v-10.4458h-3.32959v-1.64746h8.49414v1.64746H121.96338z"/>
	<path d="M127.3833,70.74414V58.65088h1.83447v12.09326H127.3833z"/>
	<path d="M139.40918,69.62354c-0.78174,0.78076-1.79932,1.22168-3.12549,1.22168c-1.3252,0-2.34424-0.44092-3.12695-1.22168
		c-1.18848-1.18848-1.22168-2.39453-1.22168-4.92627c0-2.53125,0.0332-3.7373,1.22168-4.92578
		c0.78271-0.78076,1.80176-1.22412,3.12695-1.22412c1.32617,0,2.34375,0.44336,3.12549,1.22412
		c1.1875,1.18848,1.22363,2.39453,1.22363,4.92578C140.63281,67.229,140.59668,68.43506,139.40918,69.62354z M138.08398,60.92676
		c-0.45947-0.47607-1.06934-0.74756-1.80029-0.74756s-1.3418,0.27148-1.80078,0.74756c-0.59424,0.646-0.7124,1.37598-0.7124,3.77051
		c0,2.39502,0.11816,3.10938,0.7124,3.75342c0.45898,0.47607,1.06982,0.76514,1.80078,0.76514s1.34082-0.28906,1.80029-0.76514
		c0.61279-0.62842,0.71338-1.3584,0.71338-3.75342C138.79736,62.30273,138.69678,61.55518,138.08398,60.92676z"/>
	<path d="M150.77539,70.74414l-5.58789-8.50977v8.50977h-1.83594V58.65088h1.68164l5.58789,8.49219v-8.49219h1.83691v12.09326
		H150.77539z"/>
</g>
<g>
	<path d="M61.16846,79.92041h-1.61816v2.80664h-1.07812v-7.11084h2.69629c1.38818,0,2.27734,0.91895,2.27734,2.15723
		C63.4458,79.01221,62.55664,79.92041,61.16846,79.92041z M61.1084,76.58496h-1.55811v2.37744h1.55811
		c0.75928,0,1.2583-0.44043,1.2583-1.18896C62.3667,77.01416,61.86768,76.58496,61.1084,76.58496z"/>
	<path d="M68.14258,82.72705l-0.48975-1.42871h-2.80615l-0.48926,1.42871h-1.14844l2.60645-7.11084h0.86914l2.60645,7.11084
		H68.14258z M66.2749,77.22412l-1.1084,3.15625h2.18701L66.2749,77.22412z"/>
	<path d="M74.22852,82.72705l-1.49854-2.99561h-1.34814v2.99561h-1.07812v-7.11084h2.75635
		c1.34814,0,2.20703,0.86914,2.20703,2.07715c0,1.01904-0.61963,1.66797-1.41846,1.8877l1.63818,3.146H74.22852z M72.97998,76.58496
		h-1.59814v2.22705h1.59814c0.71924,0,1.2085-0.40918,1.2085-1.10889C74.18848,77.00488,73.69922,76.58496,72.97998,76.58496z"/>
	<path d="M81.12354,82.72705l-1.99756-3.50537l-1.19824,1.4375v2.06787h-1.07861v-7.11084h1.07861v3.5752l2.90625-3.5752h1.31787
		l-2.30664,2.78662l2.54688,4.32422H81.12354z"/>
	<path d="M88.69873,82.72705h-2.87646v-7.11084h2.76611c1.31836,0,2.14746,0.74902,2.14746,1.94775
		c0,0.76904-0.479,1.31836-0.95898,1.50732c0.54932,0.21973,1.06885,0.74951,1.06885,1.64844
		C90.8457,82.02832,89.95703,82.72705,88.69873,82.72705z M88.49854,76.58496h-1.59814v2.0376h1.59814
		c0.68945,0,1.15869-0.35986,1.15869-1.01855C89.65723,76.94434,89.18799,76.58496,88.49854,76.58496z M88.59863,79.59082h-1.69824
		v2.16748h1.69824c0.74902,0,1.16846-0.45996,1.16846-1.08838C89.76709,80.04053,89.34766,79.59082,88.59863,79.59082z"/>
	<path d="M96.28223,82.72705l-0.48926-1.42871h-2.80615l-0.48975,1.42871h-1.14844l2.60645-7.11084h0.86914l2.60645,7.11084
		H96.28223z M94.41504,77.22412l-1.10889,3.15625h2.18701L94.41504,77.22412z"/>
	<path d="M100.33057,82.78662c-1.06885,0-1.82764-0.24902-2.5166-0.93896l0.70898-0.7085
		c0.51953,0.51953,1.1084,0.68896,1.82764,0.68896c0.93896,0,1.46826-0.39893,1.46826-1.09863
		c0-0.31885-0.08008-0.56885-0.27979-0.73877c-0.18018-0.16016-0.41943-0.24951-0.7793-0.29932l-0.83838-0.12012
		c-0.57959-0.08984-1.02881-0.26953-1.33838-0.56885c-0.34961-0.32031-0.52979-0.77979-0.52979-1.36914
		c0-1.23877,0.89941-2.07666,2.37744-2.07666c0.94824,0,1.59766,0.23877,2.20703,0.80859l-0.67871,0.6792
		c-0.43994-0.41943-0.95898-0.54932-1.56836-0.54932c-0.83887,0-1.28809,0.45996-1.28809,1.10889
		c0,0.25928,0.06982,0.49854,0.25928,0.65869c0.17969,0.15967,0.38965,0.25928,0.77881,0.31982l0.84912,0.12988
		c0.64941,0.09961,1.00879,0.25,1.31836,0.52881c0.37988,0.34961,0.5791,0.83936,0.5791,1.45801
		C102.88721,82.00781,101.82861,82.78662,100.33057,82.78662z"/>
	<path d="M104.33936,82.72705v-7.11084h4.54395v0.96875h-3.46533v2.07764h2.95605v0.9585h-2.95605v2.13721h3.46533v0.96875
		H104.33936z"/>
	<path d="M110.36426,82.72705v-7.11084h1.07959v6.14209h3.42529v0.96875H110.36426z"/>
	<path d="M122.53369,82.72705l-0.49023-1.42871h-2.80566l-0.48877,1.42871h-1.14941l2.60742-7.11084h0.86865l2.60645,7.11084
		H122.53369z M120.66553,77.22412l-1.1084,3.15625h2.18799L120.66553,77.22412z"/>
	<path d="M128.61914,82.72705l-1.49805-2.99561h-1.34766v2.99561h-1.0791v-7.11084h2.75684
		c1.34766,0,2.20703,0.86914,2.20703,2.07715c0,1.01904-0.61963,1.66797-1.41797,1.8877l1.6377,3.146H128.61914z
		 M127.37109,76.58496h-1.59766v2.22705h1.59766c0.71924,0,1.20898-0.40918,1.20898-1.10889
		C128.58008,77.00488,128.09033,76.58496,127.37109,76.58496z"/>
	<path d="M131.24023,82.72705v-7.11084h4.54346v0.96875h-3.46631v2.07764h2.95703v0.9585h-2.95703v2.13721h3.46631v0.96875
		H131.24023z"/>
	<path d="M141.3501,82.72705l-0.48975-1.42871h-2.80566l-0.48877,1.42871h-1.14941l2.60742-7.11084h0.86816l2.60693,7.11084
		H141.3501z M139.48242,77.22412l-1.1084,3.15625h2.1875L139.48242,77.22412z"/>
</g>
</svg>
